<svg xmlns="http://www.w3.org/2000/svg" viewBox="0 0 64 64" role="img" aria-label="DripCraft icon">
  <path d="M32 5C32 5 12 24 12 39C12 50 21 59 32 59C43 59 52 50 52 39C52 24 32 5 32 5Z" fill="#2a1408" stroke="#c8873a" stroke-width="2.6" stroke-linecap="round" stroke-linejoin="round"/>
  <path d="M32 12C32 12 18 27 18 39C18 46.8 24.2 53 32 53C39.8 53 46 46.8 46 39C46 27 32 12 32 12Z" fill="#1a0c04"/>
  <circle cx="32" cy="31" r="2.2" fill="#d89a44"/>
  <line x1="32" y1="31" x2="26.5" y2="39" stroke="#d89a44" stroke-width="1.4" opacity="0.72" stroke-linecap="round"/>
  <line x1="32" y1="31" x2="37.5" y2="39" stroke="#d89a44" stroke-width="1.4" opacity="0.72" stroke-linecap="round"/>
  <circle cx="26.5" cy="39" r="1.7" fill="#d89a44" opacity="0.85"/>
  <circle cx="37.5" cy="39" r="1.7" fill="#d89a44" opacity="0.85"/>
</svg>
