<svg xmlns="http://www.w3.org/2000/svg" viewBox="0 0 64 64" role="img" aria-label="DripCraft icon">
  <defs>
    <radialGradient id="outer" cx="30%" cy="25%" r="80%">
      <stop offset="0%" stop-color="#2a2a2a"/>
      <stop offset="100%" stop-color="#111111"/>
    </radialGradient>
    <radialGradient id="inner" cx="35%" cy="28%" r="80%">
      <stop offset="0%" stop-color="#231808"/>
      <stop offset="100%" stop-color="#120a02"/>
    </radialGradient>
  </defs>
  <circle cx="32" cy="32" r="31" fill="url(#outer)"/>
  <circle cx="32" cy="32" r="23" fill="url(#inner)" stroke="#3a2810" stroke-width="1"/>
  <path d="M32 12C32 12 18 26 18 35C18 42.2 23.8 48 31 48C38.2 48 44 42.2 44 35C44 26 32 12 32 12Z" fill="#2a1408" stroke="#c8873a" stroke-width="1.8"/>
  <path d="M32 18C32 18 23 29 23 35C23 40.2 27.2 44 32 44C36.8 44 41 40.2 41 35C41 29 32 18 32 18Z" fill="#1a0c04"/>
  <circle cx="32" cy="29" r="1.8" fill="#c8873a"/>
  <line x1="32" y1="29" x2="28" y2="35" stroke="#c8873a" stroke-width="1" opacity="0.7"/>
  <line x1="32" y1="29" x2="36" y2="35" stroke="#c8873a" stroke-width="1" opacity="0.7"/>
  <circle cx="28" cy="35" r="1.3" fill="#c8873a" opacity="0.8"/>
  <circle cx="36" cy="35" r="1.3" fill="#c8873a" opacity="0.8"/>
</svg>
